<?xml version="1.0" encoding="utf-8"?>
<!-- Generator: Adobe Illustrator 27.2.0, SVG Export Plug-In . SVG Version: 6.00 Build 0)  -->
<svg version="1.1" id="Layer_1" xmlns="http://www.w3.org/2000/svg" xmlns:xlink="http://www.w3.org/1999/xlink" x="0px" y="0px"
	 width="200.5px" height="812.6px" viewBox="0 0 200.5 812.6" style="enable-background:new 0 0 200.5 812.6;" xml:space="preserve"
	>
<style type="text/css">
	.st0{display:none;}
	.st1{display:inline;fill:#FFFFFF;}
	.st2{fill:#FFFFFF;}
</style>
<g class="st0">
	<path class="st1" d="M145.3,919.6v-82c0-33.5,0-63.2,25.7-81.1c11.5-7.8,28-11.5,41.8-11.5c11.3,0,22.2,2.3,31.7,6.9
		c36.4,17.6,37.2,55.1,37.8,82.8v33.8H349v51.1H145.3z M182.8,868.5h61.8v-30.6c0-19-0.6-42.1-32-42.1c-29.7,0-29.7,25.7-29.7,40.4
		V868.5z"/>
	<path class="st1" d="M273.4,575c38.1,0,79.9,21.9,79.9,80.8c0,42.4-24.2,81.1-79.9,81.1c-46.2,0-82.8-29.1-79.6-86.9
		C197.2,588.6,246,575,273.4,575z M243.7,684.6c8.7,5.5,19,7.5,29.4,7.5c24,0,45-11.5,45-36.4c0-24-19.3-35.8-43-35.8
		c-16.7,0-29.7,4-37.8,12.4c-8.7,9.2-8.9,19.6-8.4,26C229.9,671.1,234.2,678.6,243.7,684.6z"/>
	<path class="st1" d="M298.2,538.3c11.8-12.1,20.8-27.1,20.8-43.9c0-10.7-3.5-26.8-14.7-26.8c-5.2,0-7.2,3.2-8.7,5.8
		c-3.5,6.6-4.3,17-5.8,25.7c-1.2,6.6-2.6,13.6-4.6,20.2c-2.6,9.2-6.3,18.5-13,25.1c-6.6,6.6-17,11.3-28.3,11.3
		c-24.8,0-50.5-21.4-50.5-63.5c0-35.5,15.3-56.9,22.5-67.2l25.4,27.4c-11,14.1-15,27.4-15,37.8c0,17.3,6.9,21.4,11.3,21.4
		c8.7,0,10.4-9.5,13-24c5.5-30.3,13.6-65.5,49.3-65.5c35.5,0,52.8,35.8,52.8,71.3c0,41.8-20.2,63.5-29.1,73L298.2,538.3z"/>
	<path class="st1" d="M154.8,390.3v-44.2h47V317H229v29.4h67.8c9.2,0.3,17,0.3,17-11.5l-0.6-15.9h34.6c1.4,9.5,2.3,15.3,2.3,23.4
		c0,15.3-0.9,32-14.7,41.6c-8.9,6.1-19.6,6.4-34.1,6.4h-72.7v21.9h-27.1v-21.9H154.8z"/>
	<path class="st1" d="M310.7,152.8c7.8,5.2,15.3,10.4,22.5,18.2c12.1,13,21.4,32.6,21.4,56.8c0,44.7-28.6,76.2-77.9,76.2
		c-36.4,0-83.1-17.9-83.1-77.3c0-8.9,0.9-34.9,21.6-54.3c21.1-19.6,50.5-20.8,67.5-21.4v107.6c18.8,0.3,37.5-10.4,37.5-34.3
		c0-24.2-15.9-32.6-26.5-38.1L310.7,152.8z M255,196.9c-6.4,0.9-14.7,2-21.4,8.4c-5.5,5.5-8.4,13.9-8.4,21.6
		c0,10.7,5.2,18.2,9.8,22.5c6.6,6.1,13.6,7.5,19.9,8.9V196.9z"/>
	<path class="st1" d="M214,82.6c-8.4-9.8-15-20.5-17.3-43.6h39.2l2.3,14.7c3.8,21.4,6.9,27.7,26,27.7H349v44.4H198.1V82.6H214z"/>
	<path class="st1" d="M298.2,9.3C310.1-2.8,319-17.8,319-34.5c0-10.7-3.5-26.8-14.7-26.8c-5.2,0-7.2,3.2-8.7,5.8
		c-3.5,6.6-4.3,17-5.8,25.7c-1.2,6.6-2.6,13.6-4.6,20.2c-2.6,9.2-6.3,18.5-13,25.1c-6.6,6.6-17,11.3-28.3,11.3
		c-24.8,0-50.5-21.4-50.5-63.5c0-35.5,15.3-56.9,22.5-67.2l25.4,27.4c-11,14.1-15,27.4-15,37.8c0,17.3,6.9,21.4,11.3,21.4
		c8.7,0,10.4-9.5,13-24c5.5-30.3,13.6-65.5,49.3-65.5c35.5,0,52.8,35.8,52.8,71.3c0,41.8-20.2,63.5-29.1,73L298.2,9.3z"/>
</g>
<g>
	<path class="st2" d="M146.1,696.8c5.9,6.4,18,19.6,18,45.8c0,43.4-35.2,70-81,70C33.2,812.6,0,780.3,0,736
		c0-41.2,26.4-61.2,35.9-68.4l17.8,29.5c-8.4,5.5-22,14.5-22,36.1c0,29.5,24.4,40.7,50.4,40.7c17.6,0,31.9-4.8,39.6-12.3
		c6.4-5.9,11.2-16.5,11.2-28.4c0-7-1.8-15-5.9-21.4c-6.6-10.1-15-11.4-23.1-12.5V734H74.4v-67.6h86.3v30.4H146.1z"/>
	<path class="st2" d="M57.7,608.8c-6.4-7.5-11.4-15.6-13.2-33.2h29.9l1.8,11.2c2.9,16.3,5.3,21.1,19.8,21.1h64.7v33.9H45.6v-33H57.7
		z"/>
	<path class="st2" d="M78.4,559.3c-7.9-0.7-17.4-1.8-25.5-12.1c-8.4-10.6-10.1-24.2-10.1-37.6c0-14.1,3.3-48.2,33-48.2h66.9
		c12.3,0,14.1-0.7,18-3.3v33.2h-10.6c6.4,8.6,13.6,18.3,13.6,35.2c0,26.4-18.9,37.6-35,37.6c-18.5,0-29.1-14.7-33-24.2
		c-4-9.2-7.9-31-10.6-45.3H79c-5.3,0.4-14.1,0.9-14.1,13c0,15,9.2,16.9,13.4,17.8V559.3z M112.9,516.4c2.2,5.7,5.5,14.5,14.3,14.5
		c5.5,0,11.7-4.8,11.7-12.8c0-4.2-1.5-8.1-3.7-11.7c-7-11.2-17.6-11.7-29.5-11.9L112.9,516.4z"/>
	<path class="st2" d="M57,401.2c-1.3-1.1-2.6-2.2-3.7-3.3c-5.5-5.7-10.1-16.1-10.1-28.8c0-28.2,21.3-50,59.6-50
		c23.5,0,60.1,10.3,60.1,49.7c0,12.8-4.2,19.4-9.7,28.4h47.3v34.1H46.2v-30.2H57z M67.1,374.4c0,6.2,2.6,12.5,9.2,17.4
		c6.4,4.8,16.3,7,27.1,7c14.5,0,23.5-3.7,28.4-8.1c4.2-4,6.6-9.7,6.6-15.2c0-16.5-17.8-23.8-35.9-23.8c-15.2,0-31.3,4.2-34.8,18
		C67.3,371.3,67.1,372.8,67.1,374.4z"/>
	<path class="st2" d="M5.1,263.7h52.8c-4.8-4.8-15.2-14.7-15.2-33c0-8.4,2.4-17.6,8.1-24.4c8.6-10.1,19.4-11.9,34.3-11.9h75.5V228
		h-60.1c-9.2,0-13.6,0.2-17.6,1.5c-10.3,3.3-11.4,12.3-11.4,15.8c0,5.9,2.9,11,6.6,13.9c5.9,4.4,15.4,4.4,25.3,4.4h57.2v33.9H5.1
		V263.7z"/>
	<path class="st2" d="M5.1,164.2v-33.5h26.2v33.5H5.1z M45.6,164.2v-33.5h115.1v33.5H45.6z"/>
	<path class="st2" d="M133.6,0c6.6,4.2,13.9,8.8,20.5,18c6.2,8.8,10.3,20,10.3,33c0,22-13.2,57-60.1,57c-33.5,0-61.6-19.4-61.6-57.7
		c0-12.8,3.5-34.6,27.5-49.1l14.3,25.1c-4.2,2-8.1,4.2-12.1,9.7c-2.2,3.3-4,7.5-4,12.8c0,18.3,20.9,24.4,34.8,24.4
		c15.2,0,34.3-7.5,34.3-25.5c0-1.8,0-10.1-7.9-17.2c-3.3-2.9-5.9-4-9.2-5.1L133.6,0z"/>
</g>
</svg>
