<?xml version="1.0" encoding="utf-8"?>
<!-- Generator: Adobe Illustrator 27.2.0, SVG Export Plug-In . SVG Version: 6.00 Build 0)  -->
<svg version="1.1" id="Layer_1" xmlns="http://www.w3.org/2000/svg" xmlns:xlink="http://www.w3.org/1999/xlink" x="0px" y="0px"
	 width="209.2px" height="1026.5px" viewBox="0 0 209.2 1026.5" style="enable-background:new 0 0 209.2 1026.5;"
	 xml:space="preserve">
<style type="text/css">
	.st0{fill:#FFFFFF;}
</style>
<g>
	<path class="st0" d="M0,1026.5v-82c0-33.5,0-63.2,25.7-81.1c11.5-7.8,28-11.5,41.8-11.5c11.3,0,22.2,2.3,31.7,6.9
		c36.4,17.6,37.2,55.1,37.8,82.8v33.8h66.7v51.1H0z M37.5,975.4h61.8v-30.6c0-19-0.6-42.1-32-42.1c-29.7,0-29.7,25.7-29.7,40.4
		V975.4z"/>
	<path class="st0" d="M128.1,682c38.1,0,79.9,21.9,79.9,80.8c0,42.4-24.2,81.1-79.9,81.1c-46.2,0-82.8-29.1-79.6-86.9
		C51.9,695.5,100.7,682,128.1,682z M98.4,791.6c8.7,5.5,19,7.5,29.4,7.5c24,0,45-11.5,45-36.4c0-24-19.3-35.8-43-35.8
		c-16.7,0-29.7,4-37.8,12.4c-8.7,9.2-8.9,19.6-8.4,26C84.6,778,88.9,785.6,98.4,791.6z"/>
	<path class="st0" d="M152.9,645.3c11.8-12.1,20.8-27.1,20.8-43.9c0-10.7-3.5-26.8-14.7-26.8c-5.2,0-7.2,3.2-8.7,5.8
		c-3.5,6.6-4.3,17-5.8,25.7c-1.2,6.6-2.6,13.6-4.6,20.2c-2.6,9.2-6.3,18.5-13,25.1c-6.6,6.6-17,11.3-28.3,11.3
		c-24.8,0-50.5-21.4-50.5-63.5c0-35.5,15.3-56.9,22.5-67.2l25.4,27.4c-11,14.1-15,27.4-15,37.8c0,17.3,6.9,21.4,11.3,21.4
		c8.7,0,10.4-9.5,13-24c5.5-30.3,13.6-65.5,49.3-65.5c35.5,0,52.8,35.8,52.8,71.3c0,41.8-20.2,63.5-29.1,73L152.9,645.3z"/>
	<path class="st0" d="M9.5,497.2v-44.2h47v-29.1h27.1v29.4h67.8c9.2,0.3,17,0.3,17-11.5L168,426h34.6c1.4,9.5,2.3,15.3,2.3,23.4
		c0,15.3-0.9,32-14.7,41.6c-8.9,6.1-19.6,6.4-34.1,6.4H83.4v21.9H56.3v-21.9H9.5z"/>
	<path class="st0" d="M165.4,259.7c7.8,5.2,15.3,10.4,22.5,18.2c12.1,13,21.4,32.6,21.4,56.8c0,44.7-28.6,76.2-77.9,76.2
		c-36.4,0-83.1-17.9-83.1-77.3c0-8.9,0.9-34.9,21.6-54.3c21.1-19.6,50.5-20.8,67.5-21.4v107.6c18.8,0.3,37.5-10.4,37.5-34.3
		c0-24.2-15.9-32.6-26.5-38.1L165.4,259.7z M109.7,303.9c-6.4,0.9-14.7,2-21.4,8.4c-5.5,5.5-8.4,13.9-8.4,21.6
		c0,10.7,5.2,18.2,9.8,22.5c6.6,6.1,13.6,7.5,19.9,8.9V303.9z"/>
	<path class="st0" d="M68.7,189.6c-8.4-9.8-15-20.5-17.3-43.6h39.2l2.3,14.7c3.8,21.4,6.9,27.7,26,27.7h84.8v44.4H52.8v-43.3H68.7z"
		/>
	<path class="st0" d="M152.9,116.3c11.8-12.1,20.8-27.1,20.8-43.9c0-10.7-3.5-26.8-14.7-26.8c-5.2,0-7.2,3.2-8.7,5.8
		c-3.5,6.6-4.3,17-5.8,25.7c-1.2,6.6-2.6,13.6-4.6,20.2c-2.6,9.2-6.3,18.5-13,25.1c-6.6,6.6-17,11.3-28.3,11.3
		c-24.8,0-50.5-21.4-50.5-63.5c0-35.5,15.3-56.9,22.5-67.2l25.4,27.4c-11,14.1-15,27.4-15,37.8c0,17.3,6.9,21.4,11.3,21.4
		c8.7,0,10.4-9.5,13-24C110.8,35.2,118.9,0,154.7,0c35.5,0,52.8,35.8,52.8,71.3c0,41.8-20.2,63.5-29.1,73L152.9,116.3z"/>
</g>
</svg>
